# xmcd
# 
# Track frame offsets:
#     150
#     21327
#     43176
#     66433
#     92844
#     119753
#     141905
#     157498
#     181281
#     200480
#     212581
#     236390
#     268643
#     294797
#     316643
# 
# Disc length: 4435
# 
# Revision: 5
# Processed by: cddbd v1.5.2PL0 Copyright (c) Steve Scherf et al.
# Submitted via: fre:ac v1.0.17
# 
DISCID=e411510f
DTITLE=Francis Cabrel - La Tournée Des Bodegas 
DYEAR=2005
DGENRE=Chanson
TTITLE0=Les faussaires
TTITLE1=Bonne nouvelle
TTITLE2=Rosie
TTITLE3=Qu'est-ce que t'en dis
TTITLE4=Sarbacane
TTITLE5=Elles nous regardent
TTITLE6=Octobre
TTITLE7=Telecaster
TTITLE8=Hors-saison
TTITLE9=Je pense encore à toi
TTITLE10=Les gens absents
TTITLE11=Tu me corresponds
TTITLE12=S'abriter de l'orage
TTITLE13=Encore et encore
TTITLE14=Petite sirène
EXTD=
EXTT0=
EXTT1=
EXTT2=
EXTT3=
EXTT4=
EXTT5=
EXTT6=
EXTT7=
EXTT8=
EXTT9=
EXTT10=
EXTT11=
EXTT12=
EXTT13=
EXTT14=
PLAYORDER=
